<svg width="48" height="48" viewBox="0 0 48 48" fill="none" xmlns="http://www.w3.org/2000/svg">
<path d="M31.7592 30.75C31.9592 30.15 31.9592 29.55 31.9592 28.95C31.9592 27.55 31.5592 26.15 30.9592 24.95C29.5592 22.55 26.9592 20.95 23.9592 20.95C23.5592 20.95 23.1592 20.95 22.7592 21.15C14.7592 22.15 9.35918 29.15 5.15918 36.15L21.7592 7.35C22.7592 5.55 25.1592 5.55 26.1592 7.35C26.3592 7.75 26.5592 7.95 26.7592 8.35C30.5592 15.15 33.9592 23.35 31.7592 30.75Z" fill="#0B3954"/>
<path opacity="0.3" d="M41.3594 41.3493C33.5594 41.3493 24.7594 40.5495 19.1594 35.1495C20.5594 36.1495 22.1594 36.7495 23.9594 36.7495C26.9594 36.7495 29.5594 35.1493 30.9594 32.5493C31.3594 31.9493 31.5594 31.3495 31.5594 30.7495V30.5493C33.7594 23.1493 30.5594 14.9494 26.5594 8.14941L43.3594 37.3493C44.5594 39.1493 43.3594 41.3493 41.3594 41.3493ZM17.3594 37.3493C16.3594 35.7493 15.9594 33.9495 15.5594 31.9495C14.7594 27.1495 17.3594 21.5495 22.7594 20.7495C14.7594 21.7495 9.35944 28.7495 5.15944 35.7495C4.95944 36.1495 4.55944 36.7495 4.35944 37.1495C3.35944 38.9495 4.55944 40.9495 6.55944 40.9495H20.7594C19.3594 40.3495 18.1594 38.7493 17.3594 37.3493Z" fill="#0B3954"/>
</svg>
