<svg width="49" height="48" viewBox="0 0 49 48" fill="none" xmlns="http://www.w3.org/2000/svg">
<path opacity="0.3" d="M18.0373 12C16.8373 11.4 15.4373 10.8 14.2373 10.2C16.2373 8.00002 18.4373 6 20.8373 4.4C22.0373 4.2 23.4373 4 24.6373 4C26.0373 4 27.2373 4.2 28.4373 4.4C24.6373 6.4 21.0373 9 18.0373 12ZM24.6373 16.8C28.4373 13.2 33.0373 10.6 38.0373 9.20002C36.8373 8.00002 35.4373 7.2 34.0373 6.4C29.4373 8.2 25.0373 10.8 21.6373 14.2C22.6373 15 23.6373 15.8 24.6373 16.8Z" fill="#0B3954"/>
<path d="M14.6377 39.9995C14.6377 40.3995 14.6377 40.7995 14.6377 41.1995C13.0377 40.1995 11.6377 39.1995 10.4377 37.9995C9.83768 35.9995 8.63772 34.3995 7.03772 33.1995C6.23772 31.5995 5.63768 29.9995 5.23768 28.1995C10.6377 29.3995 14.6377 34.1995 14.6377 39.9995ZM21.8377 19.7994C18.0377 16.1994 13.4377 13.7994 8.23768 12.5994C7.43768 13.7994 6.63768 14.9994 6.23768 16.3994C11.4377 17.1994 16.0377 19.5994 19.6377 23.1995C20.2377 21.7995 21.0377 20.7993 21.8377 19.7994ZM5.03772 20.1995C4.83772 21.3995 4.6377 22.7995 4.6377 23.9995C4.6377 23.9995 4.6377 23.9995 4.6377 24.1995C9.2377 24.7995 13.4377 27.3995 15.8377 31.1995C16.2377 29.5995 16.8377 28.1993 17.4377 26.7993C14.4377 23.1993 10.0377 20.7995 5.03772 20.1995ZM22.6377 39.9995C22.6377 27.9995 31.4377 17.9994 43.0377 16.1994C42.4377 14.7994 41.8377 13.5994 41.0377 12.3994C28.2377 14.9994 18.6377 26.1993 18.6377 39.7993C18.6377 40.7993 18.6377 41.9995 18.8377 42.9995C20.2377 43.3995 21.6377 43.5993 23.0377 43.7993C22.8377 42.5993 22.6377 41.3995 22.6377 39.9995ZM38.8377 37.9995C39.4377 35.9995 40.6377 34.3995 42.2377 33.1995C43.0377 31.5995 43.6377 29.9995 44.0377 28.1995C38.6377 29.3995 34.4377 34.1995 34.4377 39.9995C34.4377 40.3995 34.4377 40.7995 34.4377 41.1995C36.2377 40.3995 37.6377 39.1995 38.8377 37.9995ZM30.6377 39.9995C30.6377 31.7995 36.8377 25.1995 44.6377 24.1995C44.6377 24.1995 44.6377 24.1995 44.6377 23.9995C44.6377 22.5995 44.4377 21.3995 44.2377 20.1995C34.2377 21.3995 26.6377 29.7995 26.6377 39.9995C26.6377 41.3995 26.8377 42.5993 27.0377 43.7993C28.4377 43.5993 29.6377 43.3995 31.0377 42.9995C30.8377 41.9995 30.6377 40.9995 30.6377 39.9995Z" fill="#0B3954"/>
</svg>
