<svg width="49" height="48" viewBox="0 0 49 48" fill="none" xmlns="http://www.w3.org/2000/svg">
<path opacity="0.3" d="M17.8332 12C16.6332 11.4 15.2332 10.8 14.0332 10.2C16.0332 8.00002 18.2332 6 20.6332 4.4C21.8332 4.2 23.2332 4 24.4332 4C25.8332 4 27.0332 4.2 28.2332 4.4C24.4332 6.4 20.8332 9 17.8332 12ZM24.4332 16.8C28.2332 13.2 32.8332 10.6 37.8332 9.20002C36.6332 8.00002 35.2332 7.2 33.8332 6.4C29.2332 8.2 24.8332 10.8 21.4332 14.2C22.4332 15 23.4332 15.8 24.4332 16.8Z" fill="#0B3954"/>
<path d="M14.4336 39.9995C14.4336 40.3995 14.4336 40.7995 14.4336 41.1995C12.8336 40.1995 11.4336 39.1995 10.2336 37.9995C9.63357 35.9995 8.43361 34.3995 6.83361 33.1995C6.03361 31.5995 5.43357 29.9995 5.03357 28.1995C10.4336 29.3995 14.4336 34.1995 14.4336 39.9995ZM21.6336 19.7994C17.8336 16.1994 13.2336 13.7994 8.03357 12.5994C7.23357 13.7994 6.43357 14.9994 6.03357 16.3994C11.2336 17.1994 15.8336 19.5994 19.4336 23.1995C20.0336 21.7995 20.8336 20.7993 21.6336 19.7994ZM4.83361 20.1995C4.63361 21.3995 4.43359 22.7995 4.43359 23.9995C4.43359 23.9995 4.43359 23.9995 4.43359 24.1995C9.03359 24.7995 13.2336 27.3995 15.6336 31.1995C16.0336 29.5995 16.6336 28.1993 17.2336 26.7993C14.2336 23.1993 9.83361 20.7995 4.83361 20.1995ZM22.4336 39.9995C22.4336 27.9995 31.2336 17.9994 42.8336 16.1994C42.2336 14.7994 41.6336 13.5994 40.8336 12.3994C28.0336 14.9994 18.4336 26.1993 18.4336 39.7993C18.4336 40.7993 18.4336 41.9995 18.6336 42.9995C20.0336 43.3995 21.4336 43.5993 22.8336 43.7993C22.6336 42.5993 22.4336 41.3995 22.4336 39.9995ZM38.6336 37.9995C39.2336 35.9995 40.4336 34.3995 42.0336 33.1995C42.8336 31.5995 43.4336 29.9995 43.8336 28.1995C38.4336 29.3995 34.2336 34.1995 34.2336 39.9995C34.2336 40.3995 34.2336 40.7995 34.2336 41.1995C36.0336 40.3995 37.4336 39.1995 38.6336 37.9995ZM30.4336 39.9995C30.4336 31.7995 36.6336 25.1995 44.4336 24.1995C44.4336 24.1995 44.4336 24.1995 44.4336 23.9995C44.4336 22.5995 44.2336 21.3995 44.0336 20.1995C34.0336 21.3995 26.4336 29.7995 26.4336 39.9995C26.4336 41.3995 26.6336 42.5993 26.8336 43.7993C28.2336 43.5993 29.4336 43.3995 30.8336 42.9995C30.6336 41.9995 30.4336 40.9995 30.4336 39.9995Z" fill="#0B3954"/>
</svg>
