<svg width="16" height="16" viewBox="0 0 16 16" fill="none" xmlns="http://www.w3.org/2000/svg">
<path d="M3.2 5.38C3.2 4.9 3.52 4.58 4 4.58H9.6L12.8 7.78V8.74L16 6.18L8.48 0.18C8.16 -0.06 7.76 -0.06 7.52 0.18L0 6.18L3.2 8.74V5.38Z" fill="#0B3954"/>
<path opacity="0.3" d="M16 6.18008V14.9801C16 15.4601 15.68 15.7801 15.2 15.7801H0.8C0.32 15.7801 0 15.4601 0 14.9801V6.18008L7.52 12.1801C7.84 12.4201 8.24 12.4201 8.48 12.1801L16 6.18008ZM10.4 7.78009H12.8L9.6 4.58008V6.98009C9.6 7.46009 9.92 7.78009 10.4 7.78009Z" fill="#0B3954"/>
</svg>
