<svg width="20" height="20" viewBox="0 0 20 20" fill="none" xmlns="http://www.w3.org/2000/svg">
<path opacity="0.3" d="M15.0507 12.7881L10.9674 17.2881C10.4674 17.8714 9.63403 17.8714 9.13403 17.2881L5.05071 12.7881C3.80071 11.3714 3.13405 9.53808 3.38405 7.45478C3.80071 4.45478 6.21738 2.03811 9.21736 1.70478C13.2174 1.28811 16.634 4.37144 16.634 8.28811C16.7174 10.0381 16.0507 11.6214 15.0507 12.7881Z" fill="#0B3954"/>
<path d="M10.0508 10.8711C11.4315 10.8711 12.5508 9.7518 12.5508 8.37105C12.5508 6.99038 11.4315 5.87109 10.0508 5.87109C8.67011 5.87109 7.55078 6.99038 7.55078 8.37105C7.55078 9.7518 8.67011 10.8711 10.0508 10.8711Z" fill="#0B3954"/>
</svg>
