<svg width="175" height="31" viewBox="0 0 175 31" fill="none" xmlns="http://www.w3.org/2000/svg">
<path d="M134.581 3.07135C134.305 2.70499 133.973 2.39499 133.614 2.14135C133.254 1.85953 132.84 1.66226 132.425 1.52135C131.983 1.38044 131.513 1.2959 131.043 1.2959C130.434 1.2959 129.799 1.40863 129.246 1.69044C128.693 1.94408 128.195 2.28226 127.78 2.73317C126.923 3.66317 126.426 4.87499 126.426 6.17135C126.426 6.81953 126.536 7.46772 126.785 8.05954C127.006 8.62317 127.338 9.15863 127.78 9.60953C128.195 10.0604 128.693 10.3986 129.246 10.6523C129.799 10.9059 130.434 11.0468 131.043 11.0468C131.596 11.0468 132.176 10.9341 132.701 10.7368C133.199 10.5395 133.669 10.2295 134.084 9.86317C135.051 8.90499 135.549 7.55226 135.438 6.17135H131.319V7.60863H133.89C133.586 8.45408 132.95 9.15863 132.149 9.49681C131.789 9.63772 131.43 9.69408 131.043 9.69408C130.6 9.69408 130.186 9.60954 129.799 9.41226C129.412 9.24317 129.08 8.96135 128.776 8.65135C128.472 8.34135 128.25 7.94681 128.085 7.55226C127.753 6.67863 127.753 5.69226 128.085 4.81863C128.25 4.3959 128.472 4.02953 128.776 3.69135C129.052 3.38135 129.412 3.12772 129.799 2.93044C130.711 2.50772 131.761 2.56408 132.591 3.09953C132.923 3.32499 133.227 3.57863 133.476 3.91681C133.807 3.63499 134.333 3.26863 134.581 3.07135ZM144.285 5.46681V5.41044C144.313 5.35408 144.313 5.3259 144.313 5.26953C144.313 5.21317 144.313 5.15681 144.34 5.10044V5.07226C144.34 5.0159 144.34 4.95953 144.34 4.90317V4.53681C144.34 4.48044 144.34 4.42408 144.34 4.36772C144.34 4.31135 144.313 4.25499 144.313 4.19863C144.313 4.14226 144.285 4.11408 144.285 4.05772V4.00135C144.258 3.97317 144.258 3.91681 144.258 3.88863C144.258 3.86044 144.258 3.80408 144.23 3.7759C144.009 3.01499 143.539 2.33863 142.875 1.9159C142.599 1.74681 142.295 1.6059 141.963 1.49317C141.631 1.43681 141.272 1.40863 140.94 1.40863H137.982V10.9623H139.309V8.14408H140.94C141.051 8.14408 141.161 8.14408 141.244 8.14408C141.355 8.14408 141.438 8.1159 141.548 8.1159L142.958 10.9904H144.368L142.765 7.69317C142.792 7.66499 142.792 7.66499 142.82 7.66499C142.848 7.66499 142.875 7.63681 142.903 7.63681C143.235 7.43953 143.511 7.15772 143.732 6.84772C143.953 6.53772 144.147 6.17135 144.258 5.80499C144.23 5.6359 144.258 5.55135 144.285 5.46681ZM139.309 6.90408V2.62044H141.078C141.327 2.62044 141.604 2.67681 141.825 2.81772C142.046 2.93044 142.267 3.09953 142.433 3.29681C142.599 3.49408 142.737 3.71953 142.82 3.97317C142.903 4.22681 142.958 4.48044 142.958 4.76226C142.958 5.04408 142.903 5.29772 142.82 5.57953C142.737 5.83317 142.599 6.05863 142.433 6.2559C142.267 6.45317 142.073 6.62226 141.825 6.73499C141.604 6.84772 141.327 6.90408 141.078 6.90408H139.309ZM149.566 1.74681C149.013 2.00044 148.543 2.33863 148.128 2.76135C147.713 3.21226 147.382 3.71953 147.16 4.28317C146.912 4.87499 146.801 5.52317 146.801 6.17135C146.801 6.81953 146.912 7.43953 147.16 8.03135C147.382 8.59499 147.713 9.10226 148.128 9.55317C148.543 9.9759 149.04 10.3423 149.566 10.5959C150.119 10.8495 150.727 10.9623 151.335 10.9623C151.943 10.9623 152.551 10.8495 153.104 10.5959C153.657 10.3423 154.127 10.0041 154.57 9.55317C154.984 9.10226 155.316 8.59499 155.537 8.03135C155.786 7.43953 155.897 6.81953 155.897 6.17135C155.897 5.52317 155.786 4.87499 155.537 4.28317C155.316 3.71953 154.984 3.21226 154.57 2.76135C154.155 2.33863 153.657 1.97226 153.104 1.74681C152.551 1.49317 151.943 1.35226 151.335 1.35226C150.727 1.35226 150.119 1.49317 149.566 1.74681ZM150.119 9.3559C149.731 9.18681 149.4 8.93317 149.123 8.62317C148.847 8.31317 148.598 7.91863 148.432 7.52408C148.266 7.10135 148.183 6.65044 148.183 6.19953C148.183 5.29772 148.515 4.42408 149.096 3.74772C149.372 3.43772 149.731 3.18408 150.091 3.01499C150.478 2.8459 150.893 2.73317 151.307 2.73317C151.722 2.73317 152.164 2.81772 152.524 3.01499C152.911 3.18408 153.243 3.43772 153.519 3.74772C154.127 4.42408 154.459 5.29772 154.431 6.19953C154.431 6.65044 154.348 7.10135 154.182 7.52408C154.017 7.91863 153.795 8.31317 153.491 8.62317C153.215 8.93317 152.855 9.18681 152.496 9.3559C152.109 9.55317 151.694 9.63772 151.28 9.63772C150.92 9.63772 150.506 9.52499 150.119 9.3559ZM163.167 7.77772C163.167 8.25681 162.974 8.7359 162.642 9.07408C162.476 9.24317 162.283 9.38408 162.062 9.46863C161.84 9.55317 161.619 9.60953 161.37 9.60953C161.149 9.60953 160.901 9.55317 160.679 9.46863C160.458 9.38408 160.265 9.24317 160.099 9.07408C159.933 8.90499 159.822 8.70772 159.739 8.48226C159.656 8.25681 159.601 8.00317 159.601 7.77772V1.40863H158.302V7.77772C158.302 8.62317 158.606 9.41226 159.186 10.0041C159.463 10.2859 159.795 10.5114 160.154 10.6804C160.541 10.8495 160.928 10.9341 161.343 10.9341C161.758 10.9341 162.172 10.8495 162.532 10.6804C163.278 10.3704 163.859 9.77863 164.163 9.01772C164.329 8.62317 164.412 8.20044 164.412 7.77772V1.40863H163.112V7.77772H163.167ZM173.286 4.3959C173.286 4.36772 173.286 4.31135 173.286 4.25499C173.286 4.19863 173.286 4.14226 173.258 4.0859C173.258 4.05772 173.231 4.05772 173.258 4.02954C173.258 3.94499 173.231 3.86044 173.175 3.7759C173.065 3.40953 172.899 3.04317 172.678 2.73317C172.457 2.42317 172.152 2.16953 171.848 1.94408C171.268 1.54953 170.577 1.38044 169.885 1.38044H166.927V10.9341H168.254V8.1159H169.885C170.245 8.1159 170.604 8.05953 170.936 7.97499C171.268 7.89044 171.572 7.74953 171.848 7.55226C172.512 7.12953 172.982 6.45317 173.175 5.69226C173.203 5.66408 173.203 5.60772 173.203 5.57953C173.203 5.55135 173.231 5.49499 173.231 5.46681C173.231 5.43863 173.231 5.43863 173.231 5.41044L173.258 5.10044C173.258 5.04408 173.286 4.98772 173.286 4.93135C173.286 4.87499 173.286 4.81863 173.286 4.76226V4.73408C173.286 4.67772 173.286 4.62135 173.286 4.56499C173.314 4.53681 173.314 4.48044 173.286 4.3959ZM168.254 6.90408V2.62044H170.024C170.273 2.62044 170.549 2.67681 170.77 2.78953C170.991 2.90226 171.185 3.07135 171.378 3.26863C171.544 3.4659 171.682 3.69135 171.765 3.94499C171.848 4.19863 171.904 4.48044 171.904 4.73408C171.904 5.0159 171.848 5.26953 171.765 5.52317C171.682 5.77681 171.544 6.00226 171.378 6.19953C171.213 6.39681 171.019 6.5659 170.77 6.67863C170.549 6.79135 170.273 6.84772 170.024 6.84772L168.254 6.90408Z" fill="#0B3954"/>
<path d="M48.0488 27.815H51.8916L41.3861 1.2959L30.9082 27.815H34.751L36.2163 23.8414L41.3861 10.145L48.0488 27.815Z" fill="#0B3954"/>
<path d="M27.1479 23.8414L25.655 27.815H21.8398L32.3177 1.2959L34.17 5.72044L27.1479 23.8414Z" fill="#0B3954"/>
<path d="M15.3991 19.0504C15.3991 19.7268 15.2608 20.4032 15.012 21.0232C14.7632 21.615 14.4038 22.1786 13.9338 22.6577C13.4638 23.1368 12.9386 23.5032 12.3304 23.7568C11.0863 24.2923 9.67632 24.2923 8.43225 23.7568C7.85168 23.5032 7.29876 23.1368 6.85642 22.6577C6.41408 22.1786 6.05468 21.615 5.80587 21.0232C5.55705 20.4032 5.41882 19.7268 5.41882 19.0504V1.2959H1.76953V19.0504C1.76953 20.2341 1.9907 21.4177 2.43304 22.4886C2.84773 23.5314 3.48359 24.4614 4.25768 25.2504C5.05942 26.0395 5.97174 26.6595 6.99465 27.1104C8.0452 27.5614 9.20634 27.815 10.3398 27.7868C11.501 27.7868 12.6621 27.5614 13.7403 27.1104C14.7632 26.6595 15.7032 26.0395 16.5049 25.2504C17.3067 24.4614 17.9425 23.5032 18.3849 22.4886C18.8548 21.3895 19.076 20.2341 19.076 19.0504V1.2959H15.3991V19.0504Z" fill="#0B3954"/>
<path d="M59.2183 17.6695H69.2814V14.0341H59.2183V5.0159H70.3873V1.2959H55.5137V27.815H70.6361V23.9823H59.2183V17.6695Z" fill="#0B3954"/>
<path d="M118.852 27.8157H122.667L112.189 1.24023L101.711 27.8157H105.526C105.526 27.8157 112.825 25.7021 116.032 25.7021C115.7 24.5184 115.285 23.3911 114.732 22.2921C112.106 22.5175 109.535 23.053 107.019 23.8139L112.216 10.1175L118.852 27.8157Z" fill="#0B3954"/>
<path d="M97.3142 6.22806C96.5401 5.24169 95.6554 4.36806 94.6325 3.66351C91.0938 1.15533 86.5322 0.67624 82.5788 2.42351C81.0583 3.09988 79.7036 4.05806 78.5425 5.24169C77.3813 6.45351 76.469 7.89079 75.8332 9.44079C74.5061 12.7381 74.5061 16.4299 75.8332 19.7271C76.469 21.2771 77.3813 22.7144 78.5425 23.9262C79.7036 25.1381 81.0859 26.0962 82.5788 26.7444C85.5922 28.0971 89.0204 28.1535 92.0614 26.9135C93.4437 26.3499 94.7431 25.5608 95.849 24.5181C97.6736 22.8553 99.5812 19.9808 99.5812 14.429H88.2739V18.4026H95.296C94.4943 20.7417 92.7526 22.6017 90.5132 23.5599C88.4398 24.3771 86.1175 24.3208 84.0717 23.3908C83.0211 22.9117 82.0535 22.2071 81.2794 21.3335C80.4777 20.4599 79.8418 19.4171 79.3995 18.3181C78.4595 15.9226 78.4595 13.2735 79.3995 10.8781C79.8418 9.75078 80.4777 8.73624 81.2794 7.83442C82.0812 6.96078 83.0211 6.28442 84.0717 5.77715C86.5599 4.62169 89.4351 4.79079 91.785 6.25624C92.7249 6.84806 93.5267 7.58079 94.1902 8.4826C95.1578 7.77806 96.5954 6.79169 97.3142 6.22806Z" fill="#0B3954"/>
</svg>
